<?xml version="1.0" standalone="no"?>
<!DOCTYPE svg PUBLIC "-//W3C//DTD SVG 20010904//EN"
 "http://www.w3.org/TR/2001/REC-SVG-20010904/DTD/svg10.dtd">
<svg version="1.0" xmlns="http://www.w3.org/2000/svg"
 width="730.000000pt" height="943.000000pt" viewBox="0 0 730.000000 943.000000"
 preserveAspectRatio="xMidYMid meet">

<g transform="translate(0.000000,943.000000) scale(0.100000,-0.100000)"
fill="#000000" stroke="none">
<path d="M3065 8771 c-85 -20 -243 -57 -260 -61 -5 -2 -18 0 -27 4 -29 13 -51
-1 -44 -28 3 -13 13 -75 21 -137 9 -63 25 -134 36 -158 14 -31 23 -75 27 -140
3 -55 10 -101 17 -108 8 -7 13 -40 13 -78 0 -36 5 -72 10 -78 5 -7 12 -34 16
-61 3 -27 10 -54 15 -60 5 -6 10 -60 12 -121 l4 -110 -105 -1 c-58 -1 -171 -2
-251 -3 l-146 -1 -17 -62 c-9 -35 -26 -101 -37 -147 -42 -180 -95 -301 -177
-409 -19 -25 -18 -24 -82 -80 -95 -82 -162 -114 -290 -141 -29 -6 -222 0 -360
11 l-35 3 -6 -90 c-4 -49 -7 -131 -8 -182 -1 -50 -6 -104 -11 -118 -19 -50
-34 -1139 -22 -1601 7 -230 16 -432 21 -449 6 -16 19 -122 30 -235 18 -188 46
-372 70 -460 5 -19 18 -73 29 -120 29 -118 62 -233 71 -245 5 -5 21 -46 36
-90 15 -44 50 -126 78 -183 44 -89 54 -103 71 -98 12 3 44 8 71 11 28 3 61 10
75 15 14 5 54 11 90 15 101 10 140 17 140 26 0 5 -18 37 -40 71 -46 71 -169
321 -170 345 -1 4 -9 26 -20 48 -31 64 -28 70 62 114 46 23 75 41 65 41 -16 0
-17 18 -17 235 0 212 2 235 18 244 9 6 13 11 7 11 -11 0 -120 -54 -202 -102
-61 -34 -61 -36 -37 -155 8 -43 18 -90 20 -105 l5 -28 -91 0 -90 0 5 -42 5
-43 -11 45 c-5 25 -14 54 -20 65 -18 38 -83 528 -76 575 2 14 5 7 6 -17 l1
-42 88 -3 87 -3 7 -35 c3 -19 4 12 1 70 l-5 105 106 53 c58 28 111 52 118 52
6 0 1 11 -11 24 -26 27 -24 34 35 117 l32 47 -41 -9 c-23 -5 -51 -14 -62 -19
-24 -11 -186 -52 -190 -48 -6 6 -9 267 -4 273 3 3 60 12 125 21 166 22 223 31
197 33 -21 1 -23 6 -23 54 0 49 2 54 28 65 21 9 -3 10 -118 6 -80 -3 -162 -7
-182 -10 l-38 -6 -1 69 c-3 166 2 503 12 796 6 175 9 324 6 330 -3 9 -31 11
-95 7 l-90 -5 -5 43 c-6 53 4 252 12 252 3 -1 45 -56 92 -123 l86 -122 49 3
c27 1 87 14 134 29 273 85 492 271 647 548 53 95 123 261 123 290 0 19 -157
308 -197 362 -13 17 -20 34 -16 36 5 3 62 2 128 -2 66 -5 112 -9 103 -10 -15
-1 -18 -11 -18 -56 l0 -55 53 -1 c48 -1 121 -16 87 -18 -13 -1 -14 -19 -12
-112 3 -85 0 -114 -10 -120 -7 -5 383 -8 867 -8 484 0 874 3 868 6 -20 8 -18
242 2 249 11 5 15 22 15 64 l0 57 118 6 c64 2 120 3 125 0 4 -2 -6 -23 -21
-46 -16 -23 -46 -73 -67 -112 -21 -38 -58 -102 -82 -142 -23 -39 -43 -81 -43
-93 0 -38 82 -228 146 -340 67 -117 200 -265 314 -350 60 -45 242 -140 268
-140 10 0 29 -6 44 -14 14 -8 59 -19 99 -26 85 -15 69 -27 184 139 39 56 73
101 78 101 4 0 7 -66 7 -146 l0 -145 -90 3 -90 3 -6 -42 c-3 -23 -3 -83 0
-135 3 -51 9 -287 12 -524 l6 -431 -62 -7 c-59 -7 -62 -8 -57 -32 5 -26 -12
-31 -60 -18 -24 7 -33 36 -10 33 37 -5 47 2 47 30 0 39 -18 50 -22 14 -2 -20
-9 -28 -23 -28 -11 0 -25 -6 -30 -13 -6 -7 -42 -17 -80 -21 -39 -5 -60 -9 -47
-10 22 -1 22 -2 22 -163 -1 -150 -2 -161 -16 -135 -8 15 -17 27 -20 27 -3 0
-2 -6 2 -12 11 -21 79 -123 84 -128 3 -3 16 -22 28 -43 20 -35 21 -40 6 -62
l-16 -24 39 6 c21 3 72 11 113 18 41 7 77 11 79 9 3 -3 -1 -84 -7 -181 -7 -96
-10 -178 -7 -181 3 -3 5 9 5 26 l0 32 84 0 c58 0 86 4 90 13 8 17 -3 -179 -14
-245 -5 -29 -18 -109 -30 -178 -23 -142 -28 -160 -38 -143 -4 6 -46 12 -98 14
l-91 4 -12 -60 c-24 -132 -157 -448 -245 -585 -26 -39 -44 -75 -42 -79 3 -5
41 -11 84 -15 44 -3 128 -15 188 -26 59 -11 113 -20 120 -20 7 0 20 21 30 48
10 26 23 54 30 62 7 8 21 40 32 70 10 30 33 89 50 130 34 84 76 216 97 305 44
189 55 243 55 269 0 16 5 43 10 60 35 103 74 633 85 1156 8 378 -17 1406 -42
1698 -5 62 -5 63 -31 58 -15 -3 -106 -6 -202 -7 -166 -2 -179 -1 -255 25 -117
39 -227 120 -307 226 -39 52 -104 188 -117 245 -7 28 -21 74 -32 103 -10 29
-19 63 -19 74 0 12 -10 55 -22 95 l-22 73 -115 1 c-64 0 -492 1 -951 2 l-835
2 -3 42 c-5 62 16 85 111 123 71 29 98 34 197 39 l115 6 8 95 c10 113 2 386
-14 485 -14 90 -63 246 -97 310 -27 49 -28 50 -77 52 -27 1 -86 -6 -130 -16z
m2542 -5118 c-3 -10 -5 -4 -5 12 0 17 2 24 5 18 2 -7 2 -21 0 -30z m-10 -45
c-3 -8 -6 -5 -6 6 -1 11 2 17 5 13 3 -3 4 -12 1 -19z"/>
<path d="M4190 8658 c-36 -6 -67 -14 -70 -19 -3 -4 -1 -47 4 -94 11 -98 -1
-291 -33 -550 -11 -88 -20 -161 -21 -161 0 -1 55 -3 123 -6 107 -4 131 -8 183
-32 32 -15 71 -39 86 -53 23 -22 28 -24 34 -10 3 9 12 152 19 319 8 167 16
335 20 373 5 62 3 77 -20 128 -36 77 -83 105 -186 111 -41 3 -103 0 -139 -6z"/>
<path d="M3660 8485 c-30 -41 -42 -44 -36 -10 3 17 0 25 -10 25 -9 0 -14 -11
-14 -30 0 -23 6 -33 25 -40 31 -12 31 -17 -1 -51 -31 -32 -27 -73 6 -84 11 -3
20 -13 20 -21 0 -8 4 -13 9 -9 5 3 12 1 16 -5 4 -6 10 -8 15 -5 5 3 11 1 15
-5 3 -5 -1 -10 -10 -10 -15 0 -15 -1 -1 -16 9 -8 16 -22 16 -30 0 -11 9 -15
31 -12 23 2 35 -3 49 -22 17 -22 22 -23 39 -13 13 8 22 9 26 3 9 -15 95 -13
95 3 0 6 -22 30 -49 52 -27 22 -51 50 -53 62 -6 26 17 20 33 -9 6 -11 17 -17
25 -14 9 3 12 1 9 -4 -3 -6 -1 -10 5 -10 6 0 15 -10 20 -22 5 -14 9 -17 10 -8
0 8 8 -1 17 -20 l15 -35 9 29 c23 80 22 132 -5 188 -34 71 -83 121 -141 143
-39 15 -49 16 -71 5 -16 -9 -23 -19 -19 -29 5 -13 4 -14 -6 -3 -7 6 -21 12
-31 12 -10 0 -18 7 -18 15 0 24 -13 17 -40 -20z m36 -42 c3 -10 10 -27 16 -37
8 -15 7 -18 -6 -13 -18 7 -20 -3 -16 -70 2 -55 -18 -55 -60 0 -12 16 -9 22 19
51 l33 34 -22 15 c-12 8 -19 20 -15 26 10 17 45 13 51 -6z m201 -185 c-3 -8
-6 -5 -6 6 -1 11 2 17 5 13 3 -3 4 -12 1 -19z"/>
<path d="M3567 8370 c7 -8 8 -21 3 -34 -12 -32 29 -100 63 -104 15 -2 27 2 27
8 0 6 -5 8 -10 5 -20 -12 -64 57 -65 102 0 15 -7 28 -15 31 -12 3 -12 2 -3 -8z"/>
<path d="M3455 8286 c-14 -21 -15 -29 -5 -41 7 -8 9 -15 4 -15 -4 0 -3 -5 4
-12 9 -9 15 -9 23 -1 7 7 8 13 0 17 -6 4 -7 15 -1 30 4 12 5 29 0 36 -6 9 -12
6 -25 -14z"/>
<path d="M3535 8269 c-4 -6 -2 -16 4 -22 6 -6 11 -21 11 -34 0 -15 8 -27 23
-32 13 -5 29 -16 36 -24 13 -17 45 -12 35 5 -4 6 -1 8 7 6 8 -3 13 -10 12 -15
-1 -5 6 -14 15 -20 13 -8 21 -7 31 5 12 12 11 13 -9 7 -14 -4 -20 -3 -16 3 3
5 -1 15 -10 22 -8 7 -13 19 -10 27 3 7 -1 13 -10 13 -8 0 -17 -7 -21 -16 -4
-12 -13 -7 -39 22 -19 20 -34 40 -34 45 0 14 -18 20 -25 8z"/>
<path d="M3465 8179 c-8 -12 13 -49 27 -49 6 0 8 -9 5 -21 -3 -12 -3 -18 0
-15 11 10 45 -15 39 -30 -3 -8 -1 -14 5 -14 6 0 7 -4 4 -10 -3 -5 4 -10 15
-10 16 0 20 4 16 16 -3 9 -6 20 -6 25 0 6 -4 7 -10 4 -5 -3 -10 0 -10 8 0 8
-9 17 -20 20 -15 4 -20 14 -20 40 0 26 -5 36 -20 40 -11 3 -22 1 -25 -4z"/>
<path d="M3580 8132 c0 -4 9 -13 21 -20 17 -11 19 -16 7 -29 -11 -14 -10 -15
7 -10 23 8 58 -11 38 -20 -23 -9 -14 -20 12 -15 20 3 25 0 25 -16 0 -41 66
-55 121 -26 17 8 37 13 45 10 9 -4 13 2 12 18 -2 16 -7 22 -19 19 -9 -3 -23 3
-32 11 -14 15 -15 13 -10 -19 l6 -35 -47 1 c-68 3 -93 47 -28 50 23 1 22 2 -7
8 -19 3 -36 12 -39 20 -3 9 0 11 8 6 9 -5 11 -4 6 4 -4 6 -11 9 -16 6 -5 -3
-13 3 -19 12 -8 13 -13 15 -19 6 -6 -9 -16 -8 -40 7 -18 11 -32 16 -32 12z"/>
<path d="M3760 8128 c1 -31 18 -42 44 -30 14 6 26 16 26 22 0 14 -6 13 -24 -5
-13 -13 -15 -13 -21 5 -7 22 -25 27 -25 8z"/>
<path d="M3930 8115 c-8 -9 -8 -15 -2 -15 12 0 26 19 19 26 -2 2 -10 -2 -17
-11z"/>
<path d="M3850 8110 c-12 -8 -10 -10 8 -10 13 0 20 4 17 10 -7 12 -6 12 -25 0z"/>
<path d="M3745 7940 c-24 -26 -17 -30 20 -14 20 9 24 13 12 14 -10 0 -15 5
-12 10 10 17 -1 11 -20 -10z"/>
<path d="M2827 6990 c-42 -13 -114 -76 -141 -123 -33 -57 -50 -148 -42 -227 9
-98 24 -138 68 -186 32 -35 54 -48 108 -64 81 -24 96 -25 168 -4 73 21 115 53
141 107 30 62 28 111 -4 125 -47 22 -55 16 -55 -38 0 -86 -50 -150 -117 -150
-78 0 -113 61 -121 211 -5 114 12 226 42 271 18 28 29 33 67 36 62 4 91 -26
97 -103 5 -59 11 -64 58 -43 24 11 26 15 20 58 -7 49 -27 82 -70 114 -22 17
-44 21 -109 23 -45 1 -95 -2 -110 -7z"/>
<path d="M3190 6988 c0 -2 -1 -137 -3 -301 l-2 -298 200 3 c222 3 247 10 286
71 16 26 19 45 16 96 -3 59 -6 66 -40 98 -21 18 -50 36 -67 39 l-29 6 42 22
c49 26 69 60 69 120 0 61 -23 98 -75 124 -41 20 -58 22 -221 22 -97 0 -176 -1
-176 -2z m274 -74 c22 -22 26 -36 26 -81 0 -70 -29 -103 -90 -103 l-40 0 0 98
c0 54 3 102 7 105 16 17 71 6 97 -19z m13 -268 c25 -22 28 -30 28 -90 0 -84
-19 -107 -91 -109 l-49 -2 -3 113 -3 112 45 0 c33 0 52 -6 73 -24z"/>
<path d="M3682 6958 l3 -33 73 -3 72 -3 0 -264 0 -265 95 0 95 0 0 265 0 264
73 3 72 3 0 30 0 30 -243 3 -243 2 3 -32z"/>
<path d="M4306 6978 c-26 -87 -60 -199 -80 -268 -13 -47 -32 -110 -41 -140 -9
-30 -25 -83 -35 -118 l-19 -63 37 3 c36 3 38 5 56 66 l20 63 90 -3 91 -3 14
-62 14 -63 89 0 c101 0 98 -4 69 91 -19 61 -32 108 -66 237 -9 31 -24 86 -35
122 -10 36 -24 84 -30 108 l-11 42 -80 0 c-55 0 -81 -4 -83 -12z m44 -205 c7
-32 16 -62 20 -68 4 -5 11 -26 15 -45 3 -19 9 -43 11 -52 5 -16 -3 -18 -64
-18 l-69 0 19 73 c10 39 22 79 27 87 5 9 12 30 16 48 3 18 8 32 10 32 2 0 9
-26 15 -57z"/>
<path d="M3254 6310 c-32 -14 -45 -27 -58 -61 -20 -50 -14 -104 12 -112 9 -2
24 -8 32 -11 13 -5 15 4 15 60 0 74 15 94 70 94 40 0 65 -27 65 -69 0 -41 -22
-72 -132 -190 -71 -76 -88 -99 -86 -120 l3 -26 168 -3 167 -2 0 50 0 50 -90 0
c-49 0 -90 4 -90 8 0 4 32 34 71 66 39 33 80 73 90 90 23 38 25 103 3 134 -41
59 -157 79 -240 42z"/>
<path d="M3648 6309 c-75 -39 -97 -144 -37 -174 15 -8 30 -15 34 -15 3 0 5 29
5 63 0 49 4 68 18 80 23 21 76 22 96 2 47 -47 17 -116 -105 -240 -77 -79 -90
-97 -87 -121 l3 -29 165 0 165 0 3 48 3 47 -90 0 c-50 0 -91 4 -91 9 0 4 33
36 73 71 104 90 127 142 92 209 -33 64 -169 92 -247 50z"/>
<path d="M4054 6311 c-22 -10 -49 -31 -59 -47 -26 -40 -25 -112 3 -151 l21
-30 -29 -28 c-55 -53 -28 -140 53 -179 54 -25 162 -22 210 7 96 58 104 165 18
234 l-24 20 21 21 c24 24 30 79 12 113 -29 54 -147 74 -226 40z m150 -42 c20
-16 26 -29 26 -59 0 -54 -15 -62 -78 -41 -88 30 -116 73 -70 105 32 23 90 20
122 -5z m-45 -239 c27 -12 54 -32 61 -46 12 -21 11 -28 -7 -52 -17 -22 -29
-28 -73 -30 -44 -3 -57 1 -77 20 -38 35 -45 63 -28 105 14 32 18 35 45 29 17
-3 52 -15 79 -26z"/>
<path d="M1965 5850 c-3 -6 -4 -18 -1 -28 4 -10 -3 -47 -14 -82 -11 -34 -20
-66 -20 -70 0 -4 40 -10 89 -12 141 -8 218 -61 262 -181 11 -29 19 -53 19 -54
0 -2 38 -3 85 -3 47 0 85 4 85 8 0 18 57 75 92 93 40 20 103 25 113 9 15 -24
25 6 25 75 l0 74 -47 3 -48 3 -3 58 c-3 49 -6 57 -22 57 -18 0 -20 -7 -20 -61
l0 -61 -135 4 c-87 2 -139 8 -147 16 -6 6 -14 38 -16 70 -4 54 -2 60 17 65 12
3 21 10 21 16 0 15 -326 15 -335 1z"/>
<path d="M4637 5780 c-13 -15 -24 -19 -40 -14 -18 6 -20 5 -10 -8 10 -11 7
-22 -15 -52 -22 -31 -27 -50 -27 -95 0 -31 -4 -59 -10 -63 -5 -4 1 -8 15 -8
17 0 31 9 43 28 l18 27 -4 -45 c-2 -25 -7 -52 -11 -61 -10 -22 47 -47 68 -30
15 13 36 85 36 125 0 14 9 35 21 47 16 16 19 27 13 52 -8 39 -21 57 -43 58 -9
1 -5 4 9 9 24 8 25 8 2 9 -16 1 -22 6 -20 18 4 25 -24 27 -45 3z"/>
<path d="M4540 5780 c0 -5 7 -10 15 -10 8 0 15 5 15 10 0 6 -7 10 -15 10 -8 0
-15 -4 -15 -10z"/>
<path d="M4484 5755 c-4 -10 -21 -15 -53 -15 -43 0 -71 -12 -71 -32 0 -4 22
-19 49 -32 50 -26 68 -57 56 -96 -3 -10 -1 -21 5 -25 5 -3 10 -14 10 -25 0
-15 9 -19 55 -22 34 -2 51 0 44 7 -5 5 -27 8 -50 6 -39 -3 -40 -2 -27 18 10
17 11 23 0 30 -10 6 -9 16 2 49 13 37 13 46 1 77 -20 45 -19 63 3 68 16 4 16
5 -1 6 -10 0 -20 -6 -23 -14z"/>
<path d="M4904 5753 c18 -3 46 -22 71 -49 23 -24 48 -44 56 -44 8 -1 0 -7 -17
-14 -42 -18 -45 -25 -33 -72 6 -21 10 -48 10 -59 0 -11 9 -29 20 -41 14 -15
18 -29 14 -46 -5 -20 0 -30 30 -53 36 -27 38 -27 91 -15 66 16 74 25 76 82 2
36 -3 52 -25 77 -15 18 -27 45 -27 60 0 15 -9 36 -20 46 -15 14 -19 26 -15 46
5 21 1 31 -17 43 -19 14 -21 18 -8 26 11 7 0 10 -36 10 -28 0 -84 2 -125 4
-41 2 -61 2 -45 -1z m166 -113 c0 -5 -4 -10 -10 -10 -5 0 -10 5 -10 10 0 6 5
10 10 10 6 0 10 -4 10 -10z"/>
<path d="M5310 5740 c-8 -5 -11 -12 -7 -17 5 -4 11 -3 15 3 4 6 14 14 22 17
13 5 13 5 0 6 -8 0 -22 -3 -30 -9z"/>
<path d="M5390 5740 c0 -6 6 -13 14 -16 29 -11 39 -62 34 -172 -3 -59 -3 -113
-1 -119 12 -34 18 -2 21 108 3 99 1 129 -13 160 -10 21 -22 36 -26 33 -5 -3
-9 0 -9 5 0 6 -4 11 -10 11 -5 0 -10 -5 -10 -10z"/>
<path d="M5208 5703 c6 -2 18 -2 25 0 6 3 1 5 -13 5 -14 0 -19 -2 -12 -5z"/>
<path d="M5270 5695 c7 -9 15 -13 17 -11 7 7 -7 26 -19 26 -6 0 -6 -6 2 -15z"/>
<path d="M4806 5662 c-10 -16 -31 -33 -47 -39 -25 -10 -27 -15 -31 -74 -2 -35
0 -72 4 -81 16 -33 88 -12 88 25 0 13 7 15 30 11 25 -6 30 -3 36 21 10 40 -3
125 -22 146 -23 26 -36 24 -58 -9z"/>
<path d="M5308 5662 c-25 -5 -23 -51 3 -102 24 -45 42 -50 63 -17 30 48 -16
131 -66 119z"/>
<path d="M5273 5590 c0 -25 2 -35 4 -22 2 12 2 32 0 45 -2 12 -4 2 -4 -23z"/>
<path d="M1954 5611 c-83 -21 -157 -101 -173 -186 -28 -148 85 -285 234 -285
66 0 132 28 172 74 38 43 73 121 73 163 0 36 -30 115 -56 150 -51 68 -165 106
-250 84z"/>
<path d="M2601 5486 c-117 -42 -144 -189 -49 -270 77 -66 176 -53 233 32 55
81 18 198 -74 236 -48 19 -64 19 -110 2z"/>
<path d="M3002 5460 c-39 -16 -50 -63 -41 -172 12 -153 -19 -137 264 -140
l243 -3 7 67 c6 58 4 69 -13 86 -13 13 -19 28 -15 42 5 20 11 20 117 18 l111
-3 3 -27 c2 -19 -2 -28 -18 -33 -19 -6 -21 -13 -18 -73 3 -64 4 -67 30 -70 24
-3 27 0 30 35 l3 38 85 3 c117 4 130 0 130 -43 l0 -35 144 0 143 0 7 46 c3 26
6 86 6 134 0 72 -4 92 -19 111 l-19 24 -579 2 c-340 1 -587 -2 -601 -7z"/>
<path d="M4600 5445 c0 -20 58 -124 82 -148 14 -14 18 -33 18 -83 0 -41 4 -63
10 -59 6 3 10 34 10 68 0 51 -4 64 -20 75 -23 14 -80 109 -80 134 0 9 -4 20
-10 23 -5 3 -10 -1 -10 -10z"/>
<path d="M5433 5390 c2 -8 10 -15 17 -15 7 0 15 7 17 15 4 13 3 13 -6 0 -10
-13 -12 -13 -22 0 -9 13 -10 13 -6 0z"/>
<path d="M4792 5360 c0 -14 2 -19 5 -12 2 6 2 18 0 25 -3 6 -5 1 -5 -13z"/>
<path d="M5461 5340 c-7 -17 -10 -38 -7 -47 4 -9 1 -31 -5 -50 -10 -31 -2 -65
8 -35 3 6 9 10 13 7 18 -11 33 68 21 113 -7 23 -13 42 -14 42 -1 0 -8 -14 -16
-30z"/>
<path d="M4890 5338 c0 -19 37 -33 67 -25 11 3 7 5 -11 6 -16 0 -35 9 -42 19
-13 16 -13 16 -14 0z"/>
<path d="M5331 5334 c0 -11 3 -14 6 -6 3 7 2 16 -1 19 -3 4 -6 -2 -5 -13z"/>
<path d="M4796 5312 c-3 -6 -1 -14 5 -17 15 -10 25 3 12 16 -7 7 -13 7 -17 1z"/>
<path d="M5152 5308 c-17 -5 -32 -14 -32 -20 0 -9 3 -9 12 0 21 21 57 14 70
-13 8 -18 17 -24 30 -19 10 3 18 0 18 -7 0 -9 4 -8 15 1 9 7 15 8 15 2 0 -5 9
-8 20 -5 11 3 20 12 20 20 0 10 -6 12 -22 7 -13 -4 -27 -7 -33 -6 -32 3 -50
11 -64 28 -13 17 -22 19 -49 12z"/>
<path d="M4868 5290 c-21 -29 -22 -56 -4 -90 14 -24 14 -24 21 21 4 25 5 57 3
70 l-3 24 -17 -25z"/>
<path d="M4988 5303 c6 -2 18 -2 25 0 6 3 1 5 -13 5 -14 0 -19 -2 -12 -5z"/>
<path d="M5340 5300 c0 -5 5 -10 11 -10 5 0 7 5 4 10 -3 6 -8 10 -11 10 -2 0
-4 -4 -4 -10z"/>
<path d="M4760 5291 c0 -6 5 -13 10 -16 6 -3 10 1 10 9 0 9 -4 16 -10 16 -5 0
-10 -4 -10 -9z"/>
<path d="M5035 5290 c3 -5 8 -10 11 -10 2 0 4 5 4 10 0 6 -5 10 -11 10 -5 0
-7 -4 -4 -10z"/>
<path d="M5073 5273 c9 -2 23 -2 30 0 6 3 -1 5 -18 5 -16 0 -22 -2 -12 -5z"/>
<path d="M4750 5231 c0 -11 5 -23 10 -26 6 -4 10 5 10 19 0 14 -4 26 -10 26
-5 0 -10 -9 -10 -19z"/>
<path d="M4806 5232 c-7 -11 15 -82 26 -82 13 0 9 53 -6 73 -8 10 -17 14 -20
9z"/>
<path d="M5340 5165 c0 -8 5 -15 10 -15 6 0 10 7 10 15 0 8 -4 15 -10 15 -5 0
-10 -7 -10 -15z"/>
<path d="M4742 5118 c-2 -51 -5 -58 -22 -58 -11 0 -20 5 -20 10 0 6 -4 10 -10
10 -5 0 -10 -7 -10 -15 0 -19 59 -21 66 -1 3 7 3 35 1 62 l-3 49 -2 -57z"/>
<path d="M4872 5133 c-1 -17 -8 -33 -14 -36 -7 -2 -10 -8 -5 -12 14 -16 28 12
24 46 l-4 34 -1 -32z"/>
<path d="M4697 5121 c-3 -12 -1 -24 4 -27 13 -8 24 25 12 37 -7 7 -12 3 -16
-10z"/>
<path d="M4817 5103 c-4 -3 -7 -11 -7 -17 0 -6 5 -5 12 2 6 6 9 14 7 17 -3 3
-9 2 -12 -2z"/>
<path d="M4840 5040 c-12 -8 -11 -10 8 -10 12 0 22 5 22 10 0 13 -11 13 -30 0z"/>
<path d="M2932 4843 c-2 -27 -28 -31 -35 -5 -3 9 -5 -10 -6 -44 -2 -88 9 -98
108 -102 45 -2 81 -6 81 -8 0 -2 -8 -18 -18 -36 -11 -18 -36 -64 -57 -103 -20
-38 -44 -79 -51 -90 -10 -14 -14 -56 -14 -152 l0 -133 98 0 c56 0 140 -8 200
-20 226 -44 492 -45 707 -3 44 9 137 18 208 20 l127 5 -1 131 c-1 126 -2 134
-29 182 -34 59 -100 191 -100 199 0 3 23 6 50 6 71 0 100 29 100 101 0 43 -2
50 -14 40 -8 -6 -20 -10 -27 -9 -7 2 -18 -12 -25 -31 -6 -19 -21 -43 -34 -53
-21 -17 -56 -18 -612 -18 l-590 0 -28 30 c-20 21 -30 44 -33 73 -2 23 -4 32
-5 20z m1008 -183 l0 -30 -340 0 -340 0 0 30 0 30 340 0 340 0 0 -30z m-527
-257 c3 -5 -59 -7 -136 -5 -258 4 -285 8 -75 10 114 1 209 -1 211 -5z m-198
-55 l200 -3 -208 -5 c-202 -5 -207 -5 -207 15 0 13 3 16 8 8 6 -9 63 -13 207
-15z"/>
<path d="M5126 4801 c-9 -13 134 -221 151 -221 24 0 13 24 -55 124 -68 100
-85 116 -96 97z"/>
<path d="M2045 4693 c-33 -48 -66 -97 -73 -110 -12 -21 -11 -23 10 -23 18 1
37 23 86 98 35 53 63 102 63 107 0 32 -33 4 -86 -72z"/>
<path d="M5041 4686 c-22 -23 -22 -25 -7 -55 19 -36 27 -38 49 -13 21 23 21
25 -1 62 l-19 30 -22 -24z"/>
<path d="M2173 4645 c-16 -33 -15 -36 2 -55 24 -26 27 -25 47 11 17 29 17 32
0 54 -23 32 -29 31 -49 -10z"/>
<path d="M4917 4660 c-20 -4 -39 -9 -41 -11 -17 -18 -85 -114 -149 -211 -43
-65 -82 -120 -87 -123 -21 -13 -7 -39 78 -153 49 -64 97 -130 107 -145 10 -15
21 -26 24 -25 4 2 61 62 127 133 66 72 141 153 167 180 65 70 62 96 -10 75
-32 -8 -40 -8 -48 6 -5 8 -42 64 -82 124 -69 106 -71 109 -52 126 19 17 25 35
12 33 -5 -1 -25 -5 -46 -9z"/>
<path d="M2291 4645 c3 -5 11 -22 18 -37 13 -25 10 -32 -64 -143 -76 -114 -78
-116 -109 -109 -82 18 -87 -7 -14 -85 29 -32 64 -71 77 -87 37 -45 192 -209
200 -212 4 -1 13 9 20 24 6 15 52 87 101 161 50 74 90 137 90 140 0 4 -19 31
-42 62 -40 52 -59 79 -147 209 -28 40 -42 52 -70 57 -20 4 -42 12 -50 18 -8 7
-12 8 -10 2z"/>
<path d="M5112 4575 c-27 -31 -27 -29 0 -65 l22 -30 23 22 c28 27 28 27 0 66
l-24 32 -21 -25z"/>
<path d="M2102 4541 c-27 -37 -27 -42 1 -69 l22 -21 24 35 24 35 -24 25 -25
24 -22 -29z"/>
<path d="M4420 4562 c0 -6 5 -14 10 -17 8 -5 84 -103 131 -168 3 -4 13 -5 21
-2 13 5 6 17 -31 58 -85 95 -131 140 -131 129z"/>
<path d="M5503 4140 c0 -25 2 -35 4 -22 2 12 2 32 0 45 -2 12 -4 2 -4 -23z"/>
<path d="M1751 4114 c0 -11 3 -14 6 -6 3 7 2 16 -1 19 -3 4 -6 -2 -5 -13z"/>
<path d="M5492 4050 c0 -19 2 -27 5 -17 2 9 2 25 0 35 -3 9 -5 1 -5 -18z"/>
<path d="M5462 3885 c0 -16 2 -22 5 -12 2 9 2 23 0 30 -3 6 -5 -1 -5 -18z"/>
<path d="M5446 3799 c-4 -28 -5 -53 -3 -56 3 -2 8 19 12 47 4 28 5 53 2 56 -2
3 -7 -19 -11 -47z"/>
<path d="M3482 2867 c-30 -17 -62 -66 -62 -95 0 -31 26 -79 49 -92 22 -11 90
-14 116 -4 45 18 59 121 22 166 -27 33 -90 45 -125 25z m72 -43 c20 -20 21
-88 1 -108 -29 -28 -75 6 -75 56 0 27 30 68 49 68 5 0 17 -7 25 -16z"/>
<path d="M3678 2873 l-28 -4 0 -100 c0 -99 0 -99 25 -99 22 0 25 4 25 33 0 19
3 37 6 40 13 13 42 -13 47 -43 5 -24 12 -30 32 -30 23 0 25 3 19 28 -4 15 -11
35 -16 45 -6 12 -4 24 7 39 19 29 19 41 -2 66 -19 21 -69 32 -115 25z m72 -48
c16 -19 -3 -45 -31 -45 -14 0 -19 7 -19 30 0 23 5 30 19 30 10 0 24 -7 31 -15z"/>
<path d="M2944 2852 c-90 -57 -56 -202 48 -202 32 0 47 7 75 35 33 33 35 39
30 81 -9 82 -88 126 -153 86z m92 -63 c13 -25 13 -33 0 -64 -26 -61 -86 -38
-86 33 0 41 8 57 30 64 23 8 39 -2 56 -33z"/>
<path d="M3185 2858 c-3 -7 -6 -53 -7 -103 -3 -87 -2 -90 20 -93 21 -3 22 0
22 57 0 34 4 61 8 61 5 0 15 -25 22 -55 11 -46 17 -55 35 -55 18 0 26 11 43
63 l20 62 7 -62 c7 -57 10 -63 30 -63 22 0 23 2 18 88 -2 48 -6 93 -8 100 -3
6 -20 12 -38 12 -34 0 -34 -1 -47 -60 -7 -33 -16 -58 -20 -55 -4 2 -15 29 -24
60 -16 50 -20 55 -47 55 -16 0 -32 -6 -34 -12z"/>
<path d="M3837 2818 c-4 -29 -7 -74 -7 -100 l0 -48 71 0 c62 0 70 2 67 18 -2
12 -15 18 -46 20 -34 3 -43 7 -40 20 2 12 15 18 41 20 29 3 37 7 37 23 0 15
-7 19 -35 19 -28 0 -35 4 -35 19 0 16 8 20 38 23 25 2 37 8 37 18 0 11 -15 16
-61 18 l-61 3 -6 -53z"/>
<path d="M3997 2833 c-13 -75 -8 -160 9 -167 31 -12 34 -5 34 65 l0 71 37 -71
c30 -57 42 -71 60 -71 29 0 31 5 35 118 4 91 4 92 -19 92 -21 0 -23 -5 -24
-47 -1 -27 -1 -54 0 -60 4 -29 -16 -9 -44 45 -23 44 -36 58 -56 60 -23 3 -27
-1 -32 -35z"/>
<path d="M2750 2851 c-23 -6 -25 -13 -28 -66 -2 -33 0 -79 3 -103 6 -37 9 -43
28 -40 19 3 22 8 19 39 -6 63 39 61 53 -2 5 -22 12 -29 30 -29 33 0 36 10 14
54 -13 28 -16 43 -9 57 35 65 -24 114 -110 90z m54 -37 c32 -12 13 -54 -25
-54 -10 0 -12 43 -2 53 8 8 8 8 27 1z"/>
<path d="M4228 2837 c-32 -30 -43 -77 -28 -121 14 -42 48 -66 95 -66 47 0 81
24 96 67 14 43 5 90 -23 120 -31 33 -105 32 -140 0z m103 -33 c16 -19 15 -79
-1 -99 -15 -18 -51 -20 -68 -3 -16 16 -16 90 0 106 17 17 53 15 69 -4z"/>
<path d="M2528 2834 c-15 -5 -18 -17 -18 -67 0 -34 3 -79 7 -101 l6 -38 60 4
c52 4 64 9 88 36 37 42 40 99 6 138 -19 22 -33 28 -78 30 -30 1 -62 0 -71 -2z
m102 -56 c11 -12 20 -31 20 -43 0 -30 -37 -67 -63 -63 -20 3 -22 10 -25 66 -3
60 -2 62 22 62 14 0 34 -10 46 -22z"/>
<path d="M4499 2811 c-23 -23 -29 -38 -29 -71 0 -33 6 -48 29 -71 26 -26 37
-29 89 -29 l59 0 6 53 c2 28 3 55 0 60 -2 4 -20 7 -39 7 -27 0 -34 -4 -34 -20
0 -11 5 -20 10 -20 6 0 10 -9 10 -21 0 -30 -50 -22 -69 12 -12 22 -12 29 0 55
13 26 20 29 67 32 44 3 52 6 52 23 0 17 -7 19 -61 19 -54 0 -64 -3 -90 -29z"/>
<path d="M2363 2823 c-27 -5 -26 -1 -12 -115 l12 -88 56 0 c64 0 87 10 77 35
-5 13 -14 15 -45 10 -33 -5 -39 -3 -43 13 -5 17 1 21 34 26 30 5 39 10 36 24
-3 12 -13 17 -41 17 -32 0 -37 3 -37 23 0 19 5 22 41 22 33 0 40 3 37 18 -2
13 -14 17 -48 18 -25 1 -55 0 -67 -3z"/>
<path d="M4706 2799 c-51 -60 -26 -159 44 -174 73 -16 130 33 130 113 0 60
-35 92 -99 92 -43 0 -53 -4 -75 -31z m114 -28 c27 -51 -8 -119 -53 -105 -28 9
-37 22 -37 57 0 44 17 67 50 67 19 0 33 -7 40 -19z"/>
<path d="M2198 2813 c-27 -4 -28 -7 -27 -56 0 -29 4 -74 7 -102 6 -42 11 -51
30 -53 20 -3 22 1 22 37 0 36 3 41 23 41 41 0 67 27 67 69 0 21 -6 44 -14 50
-17 14 -69 21 -108 14z m70 -50 c13 -26 4 -43 -24 -43 -20 0 -24 5 -24 30 0
23 4 30 20 30 10 0 23 -8 28 -17z"/>
<path d="M4909 2803 c0 -10 -4 -55 -7 -101 -7 -74 -6 -83 11 -88 10 -3 20 -4
21 -2 2 1 7 32 13 68 7 50 11 60 18 45 50 -118 54 -125 79 -125 29 0 33 16 38
130 3 71 2 75 -19 78 -22 3 -23 0 -23 -52 0 -31 -3 -56 -7 -56 -5 0 -20 27
-35 60 -25 54 -31 60 -58 60 -22 0 -30 -5 -31 -17z"/>
<path d="M5373 2800 c-3 -11 -12 -20 -19 -20 -8 0 -14 -5 -14 -11 0 -6 -16
-47 -35 -90 -19 -44 -35 -84 -35 -89 0 -6 11 -10 23 -10 16 0 28 9 35 26 10
20 17 24 35 18 24 -7 37 -22 37 -41 0 -15 39 -28 51 -16 5 5 3 28 -5 53 -7 25
-17 69 -21 98 -4 28 -12 52 -18 52 -6 0 0 11 13 25 l23 25 -32 0 c-24 0 -34
-5 -38 -20z m10 -107 c6 -29 4 -33 -14 -33 -16 0 -19 4 -14 18 4 9 10 25 12
35 7 22 9 20 16 -20z"/>
<path d="M5120 2786 c0 -21 5 -26 24 -26 58 0 58 -9 1 -74 -30 -33 -55 -66
-55 -73 0 -12 25 -18 118 -27 51 -5 53 -4 50 17 -2 18 -10 23 -45 25 -24 2
-43 5 -43 8 0 3 23 31 50 63 65 75 64 87 -2 94 -29 4 -63 9 -75 13 -20 5 -23
3 -23 -20z"/>
<path d="M1885 2703 c9 -95 18 -128 33 -127 7 1 35 2 62 3 46 1 50 3 50 26 0
24 -2 25 -38 19 l-38 -6 -12 59 c-7 33 -12 69 -12 81 0 17 -6 22 -26 22 l-26
0 7 -77z"/>
<path d="M1753 2763 c-14 -3 -25 -14 -28 -26 -2 -12 -11 -54 -20 -94 -19 -93
-19 -93 10 -93 17 0 25 5 25 18 0 42 67 61 77 22 4 -14 14 -20 34 -20 16 0 29
2 29 5 0 6 -65 150 -78 174 -10 17 -19 20 -49 14z m32 -95 c6 -22 4 -28 -9
-28 -12 0 -16 10 -16 37 0 41 14 36 25 -9z"/>
<path d="M5496 2743 c-10 -36 -18 -181 -10 -185 5 -3 35 -9 67 -12 53 -7 57
-6 57 13 0 17 -8 22 -41 27 l-41 7 8 46 c15 86 11 116 -13 119 -14 2 -23 -3
-27 -15z"/>
<path d="M1523 2733 c-27 -5 -27 -10 -11 -120 11 -76 14 -83 35 -83 20 0 23 5
23 41 0 33 3 40 18 37 9 -2 23 -18 31 -36 11 -23 21 -32 38 -32 13 0 23 5 23
10 0 22 -30 80 -41 80 -8 0 -6 6 4 18 39 43 6 93 -59 91 -21 -1 -49 -4 -61 -6z
m80 -47 c6 -14 -2 -24 -30 -40 -9 -5 -13 2 -13 23 0 24 4 31 19 31 10 0 21 -6
24 -14z"/>
<path d="M5647 2699 c-22 -158 -22 -156 9 -163 16 -3 58 -8 92 -11 35 -4 74
-10 86 -15 12 -4 40 -10 62 -12 34 -3 39 0 42 20 3 19 -1 22 -32 22 -19 0 -38
5 -42 11 -3 6 17 34 45 63 47 48 62 78 44 89 -5 3 -38 8 -75 12 -64 7 -68 6
-68 -13 0 -15 9 -21 41 -26 l41 -7 -40 -43 c-22 -23 -47 -52 -57 -64 -16 -18
-20 -18 -32 -6 -8 8 -30 14 -49 14 -31 0 -35 3 -32 23 3 19 8 22 46 19 38 -3
43 -1 40 15 -2 10 -17 22 -36 28 -46 13 -41 35 8 35 33 0 40 3 40 20 0 13 -7
20 -19 20 -10 0 -38 3 -63 6 l-45 6 -6 -43z"/>
<path d="M1370 2713 c-28 -10 -69 -56 -75 -84 -9 -40 20 -94 60 -113 41 -20
53 -20 100 0 l38 15 -6 51 c-4 28 -8 52 -9 53 -2 1 -20 0 -40 -3 -29 -3 -38
-9 -38 -23 0 -12 7 -19 20 -19 13 0 20 -7 20 -20 0 -33 -54 -27 -79 9 -27 37
-26 47 4 76 16 17 35 25 60 25 28 0 35 4 35 20 0 17 -6 20 -37 19 -21 0 -45
-3 -53 -6z"/>
<path d="M1241 2669 c-15 -43 -14 -59 4 -59 16 0 35 38 35 71 0 30 -27 22 -39
-12z"/>
<path d="M5984 2665 c-17 -43 -17 -45 0 -45 8 0 25 14 37 31 18 26 19 33 8 40
-23 14 -29 11 -45 -26z"/>
<path d="M1186 2682 c-2 -4 -7 -24 -11 -45 -6 -30 -4 -37 9 -37 17 0 36 37 36
71 0 18 -24 27 -34 11z"/>
<path d="M6047 2655 c-21 -43 -21 -45 -3 -45 18 0 59 56 51 70 -12 20 -32 9
-48 -25z"/>
<path d="M2048 2628 c-8 -22 3 -38 27 -38 23 0 40 24 29 41 -8 13 -51 11 -56
-3z"/>
<path d="M2657 2508 c-15 -26 -47 -148 -47 -179 0 -19 36 -8 45 14 14 32 49
34 63 3 8 -17 16 -23 31 -19 18 5 19 7 3 51 -8 25 -21 57 -29 71 -7 15 -13 32
-13 39 0 6 -5 12 -12 12 -9 0 -9 3 0 12 17 17 15 28 -5 28 -10 0 -26 -14 -36
-32z m33 -95 c0 -7 -6 -13 -14 -13 -9 0 -12 8 -8 26 3 19 7 22 13 12 5 -7 9
-19 9 -25z"/>
<path d="M3203 2523 c-14 -5 -16 -50 -7 -130 l7 -53 53 0 c47 0 54 2 54 20 0
16 -7 20 -35 20 -28 0 -35 4 -35 20 0 16 7 20 30 20 23 0 30 4 30 20 0 16 -7
20 -30 20 -20 0 -30 5 -30 15 0 10 10 15 30 15 23 0 30 4 30 20 0 17 -6 20
-42 19 -24 0 -49 -3 -55 -6z"/>
<path d="M3370 2508 c0 -13 3 -54 7 -91 l6 -68 55 3 c67 4 87 28 23 28 l-41 0
0 75 c0 73 -1 75 -25 75 -19 0 -25 -5 -25 -22z"/>
<path d="M3528 2520 c-23 -14 -41 -74 -33 -109 12 -54 66 -79 121 -56 25 10
35 22 43 53 13 46 -1 97 -29 112 -24 13 -80 12 -102 0z m76 -36 c30 -30 13
-104 -24 -104 -37 0 -54 74 -24 104 8 9 19 16 24 16 5 0 16 -7 24 -16z"/>
<path d="M3695 2506 c-22 -33 -12 -59 31 -79 43 -21 40 -42 -6 -42 -40 0 -51
-21 -18 -34 29 -11 73 -4 88 15 21 24 7 67 -27 89 -41 25 -41 33 0 37 50 5 42
32 -10 36 -35 3 -44 -1 -58 -22z"/>
<path d="M3887 2523 c-3 -5 -8 -45 -12 -90 -7 -80 -6 -83 14 -83 19 0 21 6 21
55 0 30 5 55 10 55 6 0 10 -8 10 -17 0 -10 5 -35 11 -55 15 -55 43 -51 59 7
18 65 30 65 30 1 0 -49 2 -56 20 -56 18 0 20 7 20 84 0 61 -4 87 -15 96 -26
22 -50 3 -64 -50 -12 -49 -31 -68 -31 -32 0 9 -5 34 -11 55 -8 29 -15 37 -34
37 -13 0 -26 -3 -28 -7z"/>
<path d="M2901 2511 c-10 -6 -12 -22 -9 -55 3 -25 4 -46 2 -46 -2 0 -18 23
-35 51 -26 42 -36 50 -58 47 -14 -2 -25 -6 -23 -10 1 -5 2 -44 2 -88 0 -73 2
-80 19 -80 17 0 20 8 23 53 l3 52 34 -53 c26 -40 40 -52 55 -50 19 3 21 10 21
85 0 84 -9 109 -34 94z"/>
<path d="M3010 2430 l0 -90 55 0 c72 0 105 28 105 90 0 62 -33 90 -105 90
l-55 0 0 -90z m91 50 c28 -15 27 -85 -2 -100 -36 -20 -49 -6 -49 55 0 59 9 67
51 45z"/>
<path d="M4098 2438 c-3 -46 -4 -86 -1 -90 2 -5 29 -8 59 -8 39 0 54 4 54 14
0 15 -21 26 -51 26 -13 0 -19 7 -19 21 0 17 5 20 33 17 23 -2 32 1 32 12 0 10
-12 16 -32 18 -47 5 -44 32 2 32 28 0 35 4 35 20 0 18 -7 20 -54 20 l-53 0 -5
-82z"/>
<path d="M4247 2513 c-3 -5 -8 -45 -11 -90 -7 -78 -6 -83 12 -83 16 0 21 10
27 53 l8 52 10 -52 c16 -85 48 -69 90 47 3 8 6 -13 6 -47 1 -56 3 -63 21 -63
19 0 20 7 20 91 l0 90 -32 -3 c-30 -3 -35 -8 -49 -53 -16 -50 -17 -50 -24 -20
-15 61 -29 85 -52 85 -12 0 -24 -3 -26 -7z"/>
<path d="M4466 2502 c-3 -5 -8 -45 -12 -89 l-7 -80 33 -6 c34 -7 77 0 98 16
15 12 16 49 0 65 -9 9 -9 15 0 24 21 21 13 47 -18 63 -31 16 -86 20 -94 7z
m72 -51 c-5 -24 -38 -27 -38 -3 0 10 3 21 6 25 11 11 35 -5 32 -22z m0 -74 c3
-12 -3 -17 -22 -17 -25 0 -35 18 -19 34 12 12 38 2 41 -17z"/>
<path d="M4622 2479 c-5 -13 -12 -54 -14 -91 -6 -66 -5 -68 18 -68 20 0 24 5
24 31 0 23 4 30 17 27 9 -2 20 -14 23 -27 6 -26 35 -50 47 -38 4 4 2 25 -3 46
-8 28 -7 43 3 57 15 24 7 62 -16 68 -9 3 -33 8 -53 12 -33 5 -39 3 -46 -17z
m78 -45 c0 -8 -9 -14 -20 -14 -19 0 -28 28 -13 43 9 9 33 -12 33 -29z"/>
<path d="M2475 2466 c-69 -69 8 -191 98 -157 31 12 28 46 -4 36 -48 -15 -88
30 -69 79 6 16 20 26 45 32 50 12 49 28 -2 32 -35 3 -48 -2 -68 -22z"/>
<path d="M4777 2483 c-3 -4 -6 -46 -8 -93 -3 -73 -2 -85 13 -88 21 -4 26 14
30 108 3 63 0 75 -14 78 -9 2 -18 -1 -21 -5z"/>
<path d="M2307 2397 c-21 -105 -21 -107 2 -107 13 0 21 8 23 23 4 30 45 36 65
8 13 -20 53 -30 53 -13 0 4 -15 43 -33 87 -30 73 -35 80 -63 83 -29 3 -29 3
-47 -81z m63 -2 c0 -8 -4 -17 -10 -20 -6 -4 -10 5 -10 20 0 15 4 24 10 20 6
-3 10 -12 10 -20z"/>
<path d="M4837 2393 c-4 -48 -5 -88 -4 -89 1 -2 26 -6 55 -10 49 -6 52 -5 52
15 0 17 -6 21 -31 21 l-31 0 4 75 c3 71 2 75 -18 75 -19 0 -22 -7 -27 -87z"/>
<path d="M2222 2398 c3 -72 3 -73 -22 -73 -23 0 -26 5 -35 62 -11 67 -17 78
-38 70 -20 -7 -5 -131 18 -157 24 -26 79 -26 105 0 15 15 20 33 20 79 0 73 -6
91 -32 91 -17 0 -19 -6 -16 -72z"/>
<path d="M4976 2438 c-3 -18 -7 -58 -9 -89 l-3 -57 48 -6 c53 -7 68 -3 68 20
0 9 -11 14 -36 14 l-36 0 7 75 c6 71 6 75 -14 75 -15 0 -21 -8 -25 -32z"/>
<path d="M2058 2449 c-11 -6 -18 -22 -18 -38 0 -23 -5 -30 -25 -33 -30 -6 -35
-2 -35 34 0 23 -4 28 -24 28 -24 0 -24 -2 -19 -57 8 -92 17 -118 39 -118 16 0
18 6 16 38 -4 38 -3 38 30 35 29 -3 33 -7 36 -35 3 -26 8 -33 24 -33 20 0 21
4 15 73 -8 97 -17 119 -39 106z"/>
<path d="M5118 2439 c-50 -37 -49 -128 2 -154 44 -23 78 -19 111 14 41 42 40
92 -2 132 -37 34 -73 37 -111 8z m80 -31 c16 -16 15 -60 -1 -82 -8 -11 -23
-17 -38 -14 -20 2 -25 9 -27 41 -5 57 33 88 66 55z"/>
<path d="M5303 2430 c-18 -7 -23 -17 -23 -44 0 -29 5 -38 30 -51 43 -22 40
-49 -4 -42 -24 4 -36 1 -40 -9 -13 -33 79 -47 107 -16 27 29 20 58 -18 89 -44
35 -44 47 0 40 29 -5 35 -3 35 12 0 27 -45 38 -87 21z"/>
<path d="M1802 2406 c-6 -13 -14 -51 -18 -84 l-6 -60 -42 6 c-49 6 -56 14 -56
68 0 45 -20 81 -39 70 -9 -6 -10 -28 -5 -79 10 -103 11 -105 81 -96 32 4 68 8
81 8 17 1 22 7 22 26 0 21 5 25 29 25 20 0 30 -6 34 -20 3 -12 14 -20 27 -20
27 0 24 18 -21 113 -25 54 -35 67 -53 67 -14 0 -27 -9 -34 -24z m52 -78 c-12
-19 -24 -5 -24 25 l1 32 13 -25 c8 -14 12 -28 10 -32z"/>
<path d="M5577 2404 c-4 -4 -7 -23 -8 -43 -2 -59 -13 -85 -39 -91 -14 -3 -26
-14 -28 -23 -3 -13 4 -17 30 -17 18 0 38 4 45 8 18 11 30 52 34 112 3 43 1 55
-11 58 -9 1 -19 0 -23 -4z"/>
<path d="M1590 2394 c-8 -2 -36 -6 -62 -9 -39 -5 -48 -10 -48 -26 0 -16 5 -18
24 -13 24 6 25 4 32 -66 6 -65 9 -71 28 -68 14 2 20 10 19 23 -10 111 -9 120
15 123 12 2 22 10 22 17 0 16 -10 22 -30 19z"/>
<path d="M5647 2311 c-21 -44 -37 -83 -37 -86 0 -3 11 -5 24 -5 15 0 26 7 29
19 7 27 55 17 59 -13 2 -13 11 -22 26 -24 26 -4 26 0 9 108 -12 74 -13 75 -43
78 -30 3 -32 0 -67 -77z m72 -13 c1 -5 -8 -8 -19 -8 -17 0 -18 3 -8 26 11 23
13 24 19 7 4 -10 8 -21 8 -25z"/>
<path d="M1434 2372 c-6 -4 -17 -18 -24 -32 l-13 -24 -15 22 c-8 12 -25 22
-38 22 -31 0 -30 -4 6 -51 l31 -38 -21 -40 c-25 -50 -25 -51 4 -51 19 0 26 7
31 30 8 37 22 38 37 5 12 -26 24 -30 47 -16 11 7 7 17 -18 49 l-33 40 21 40
c12 23 21 44 21 47 0 7 -23 6 -36 -3z"/>
<path d="M5806 2323 c-4 -27 -9 -67 -13 -90 -6 -42 -5 -43 24 -43 17 0 45 -3
63 -6 27 -6 32 -4 28 11 -2 11 -16 22 -36 27 -29 8 -33 12 -28 36 20 104 19
112 -7 112 -22 0 -25 -6 -31 -47z"/>
<path d="M1257 2344 c-3 -3 -2 -16 2 -28 5 -11 12 -49 16 -83 6 -50 10 -63 24
-63 10 0 20 2 23 5 5 5 -7 109 -17 153 -5 21 -33 30 -48 16z"/>
<path d="M5397 2255 c-16 -33 -16 -35 2 -35 18 0 51 39 51 60 0 25 -37 8 -53
-25z"/>
<path d="M5922 2198 c2 -15 10 -23 23 -23 30 0 27 39 -3 43 -20 3 -23 0 -20
-20z"/>
<path d="M4599 2202 l-67 -3 5 -62 c6 -75 -15 -167 -56 -248 -25 -50 -26 -56
-9 -51 10 2 23 13 29 23 5 11 14 19 20 19 22 0 110 86 132 128 23 47 93 107
181 155 43 24 59 27 144 27 52 0 93 2 91 4 -6 5 -393 12 -470 8z"/>
<path d="M2695 2160 c-3 -5 -2 -10 3 -10 11 0 51 -61 69 -105 6 -16 12 -67 12
-112 1 -91 6 -113 28 -113 12 0 13 8 6 43 -13 67 -10 261 4 279 7 8 10 18 6
21 -10 11 -121 8 -128 -3z"/>
<path d="M3003 2153 c9 -2 25 -2 35 0 9 3 1 5 -18 5 -19 0 -27 -2 -17 -5z"/>
<path d="M2298 2143 c34 -2 88 -2 120 0 31 2 3 3 -63 3 -66 0 -92 -1 -57 -3z"/>
<path d="M4058 2047 c-75 -56 -164 -122 -198 -147 -34 -25 -68 -50 -77 -57
-12 -10 -6 -26 46 -110 l60 -98 -22 -18 c-12 -10 -60 -43 -106 -74 -90 -59
-141 -74 -182 -53 -42 22 -184 118 -196 131 -9 11 2 36 47 109 46 74 56 97 47
108 -10 13 -223 171 -335 250 -55 38 -76 42 -38 7 14 -13 26 -28 26 -32 0 -4
4 -34 10 -66 15 -93 3 -148 -51 -239 -27 -45 -49 -88 -49 -96 0 -17 11 -26
100 -87 56 -38 160 -142 160 -160 0 -9 -43 5 -55 19 -11 13 -56 34 -68 32 -5
0 -13 7 -18 17 -6 9 -16 17 -23 17 -8 0 -16 9 -19 20 -3 11 -12 20 -21 20 -9
0 -16 6 -16 14 0 8 -9 21 -20 29 -20 14 -71 118 -105 213 -20 57 -50 102 -60
92 -7 -6 30 -131 44 -153 4 -5 13 -23 20 -39 l12 -29 -48 38 c-26 22 -59 49
-72 62 -13 13 -30 23 -38 23 -8 0 -59 43 -113 95 -92 90 -130 113 -130 81 0
-12 29 -36 143 -120 21 -15 63 -52 95 -82 31 -30 70 -67 87 -83 56 -52 85 -89
72 -94 -7 -2 0 -10 14 -17 15 -7 32 -23 38 -36 6 -13 16 -25 23 -25 7 -1 0 -4
-17 -8 -35 -7 -46 -39 -20 -54 10 -5 48 -10 84 -11 36 -1 75 -7 86 -13 11 -6
34 -16 50 -23 56 -21 67 -34 54 -64 -7 -14 -20 -28 -31 -31 -17 -6 -27 -55
-10 -55 4 0 25 23 47 50 22 28 42 50 46 50 9 0 19 -65 19 -122 0 -38 -4 -50
-21 -59 -17 -9 -19 -13 -8 -20 22 -14 65 -11 79 6 6 8 12 30 13 50 1 40 14 46
26 13 l8 -22 12 22 c9 16 9 22 0 22 -6 0 -8 7 -5 17 4 10 4 14 0 10 -11 -11
-54 33 -54 55 0 10 -5 18 -10 18 -6 0 -10 6 -8 13 1 6 -6 25 -16 40 -24 35
-16 43 17 17 14 -11 29 -20 35 -20 5 0 21 -9 36 -21 30 -24 70 -37 142 -48 49
-7 52 -6 70 21 21 32 87 81 121 90 12 3 33 -2 49 -13 26 -17 29 -17 53 0 14
10 34 21 44 24 9 4 17 11 17 17 0 5 6 10 13 10 6 0 32 16 56 35 46 37 74 46
65 20 -3 -8 -10 -13 -14 -12 -4 1 -9 -2 -10 -8 -3 -16 -32 -45 -46 -45 -8 0
-20 -13 -29 -30 -9 -16 -21 -30 -27 -30 -6 0 -22 -10 -35 -22 -20 -18 -23 -19
-23 -5 0 9 -5 17 -11 17 -6 0 -9 -7 -5 -15 3 -8 1 -15 -4 -15 -6 0 -10 -9 -10
-20 0 -11 4 -20 9 -20 5 0 12 -8 14 -17 4 -14 5 -14 6 3 1 21 51 64 51 45 0
-5 -4 -12 -9 -15 -5 -4 -12 -24 -16 -46 -4 -22 -11 -40 -16 -40 -5 0 -9 -9 -9
-19 0 -11 -11 -29 -26 -40 -24 -19 -25 -20 -5 -30 11 -6 38 -11 59 -11 l40 0
-5 40 c-4 26 -2 40 6 40 6 0 11 -6 11 -12 1 -20 60 -85 60 -66 0 8 -6 20 -13
26 -7 6 -24 33 -36 60 l-23 49 42 77 c41 75 147 186 178 186 7 0 30 9 51 20
29 14 76 22 177 30 141 11 207 26 183 41 -12 7 -92 5 -194 -6 l-40 -4 55 35
c30 19 74 51 98 72 24 20 89 61 145 90 116 60 137 76 120 93 -13 13 -61 -12
-133 -72 -25 -21 -74 -53 -110 -72 -36 -19 -107 -58 -158 -86 -51 -29 -97 -49
-104 -45 -6 4 -8 3 -5 -3 8 -13 -40 -36 -55 -27 -6 4 -17 -1 -24 -10 -10 -15
-11 -11 -7 23 5 36 3 41 -14 41 -31 0 -52 -22 -56 -60 -2 -19 -2 24 0 95 6
210 25 299 91 438 10 19 -24 -2 -150 -96z"/>
<path d="M895 2107 c-86 -19 -86 -24 -6 -151 32 -50 66 -106 76 -125 11 -23
19 -30 25 -22 7 12 11 2 25 -49 7 -27 18 -50 23 -50 4 0 16 -16 26 -35 24 -44
38 -46 132 -19 29 8 64 26 78 39 22 21 26 32 26 82 0 74 -31 233 -45 233 -6 0
-85 -33 -146 -62 -50 -23 -73 -41 -93 -71 l-26 -41 0 29 c0 17 -7 54 -15 84
-7 29 -17 78 -21 107 -3 30 -9 56 -13 57 -3 2 -24 -1 -46 -6z"/>
<path d="M6346 2066 c-6 -46 -32 -169 -43 -206 -3 -10 -10 -7 -26 13 -25 30
-231 132 -247 122 -5 -3 -10 -21 -10 -38 0 -18 -6 -56 -13 -84 -16 -62 -8
-144 17 -171 19 -21 146 -65 173 -60 21 4 68 70 84 118 7 19 17 38 23 42 6 4
45 69 87 145 85 153 85 157 8 165 l-47 5 -6 -51z"/>
<path d="M3235 1170 c-3 -6 1 -7 9 -4 18 7 21 14 7 14 -6 0 -13 -4 -16 -10z"/>
</g>
</svg>
